<svg width="411.99" height="356.67" xmlns="http://www.w3.org/2000/svg">
 <title>motito</title>

 <g>
  <title>background</title>
  <rect fill="none" id="canvas_background" height="402" width="582" y="-1" x="-1"/>
 </g>
 <g>
  <title>Layer 1</title>
  <path id="svg_1" fill="#ffc535" d="m375.83,356.67l-345.55,0a30.36,30.36 0 0 1 -30.28,-30.28l0,-60.56a30.36,30.36 0 0 1 30.28,-30.24l345.55,0a30.36,30.36 0 0 1 30.28,30.28l0,60.52a30.36,30.36 0 0 1 -30.28,30.28"/>
  <path id="svg_2" fill="#eb0029" d="m32.5,235.589996l317.29,0c47.38,-39 71.71,-91.29 58.71,-139.93c-20.26,-76.4 -124.74,-114.94 -233.31,-86.07s-180.12,114.18 -159.81,190.58a104.12,104.12 0 0 0 17.12,35.42"/>
  <path id="svg_3" fill="#383938" d="m129.9,336.429996a0.36,0.36 0 0 1 0.36,0.3l2.08,6.29l0.53,2l0,0l0.47,-2l1.84,-6.29a0.34,0.34 0 0 1 0.34,-0.3l1.07,0a0.23,0.23 0 0 1 0.24,0.34l-2.93,9.61a0.38,0.38 0 0 1 -0.37,0.3l-1.21,0a0.36,0.36 0 0 1 -0.37,-0.3l-1.91,-5.79l-0.61,-2.16l-0.06,0l-0.59,2.16l-1.92,5.83a0.35,0.35 0 0 1 -0.38,0.3l-1.21,0a0.38,0.38 0 0 1 -0.38,-0.3l-3,-9.61a0.24,0.24 0 0 1 0.26,-0.34l1,0a0.34,0.34 0 0 1 0.34,0.3l1.88,6.29l0.46,2l0,0l0.55,-2l2,-6.29a0.36,0.36 0 0 1 0.36,-0.3l1,0l0.16,-0.04z"/>
  <path id="svg_4" fill="#383938" d="m146.22,336.429996a0.36,0.36 0 0 1 0.36,0.3l2.08,6.29l0.53,2l0,0l0.47,-2l1.84,-6.29a0.34,0.34 0 0 1 0.34,-0.3l1.07,0a0.23,0.23 0 0 1 0.24,0.34l-2.93,9.61a0.38,0.38 0 0 1 -0.37,0.3l-1.21,0a0.36,0.36 0 0 1 -0.37,-0.3l-1.91,-5.79l-0.61,-2.16l-0.06,0l-0.6,2.16l-1.92,5.83a0.35,0.35 0 0 1 -0.38,0.3l-1.21,0a0.38,0.38 0 0 1 -0.38,-0.3l-3,-9.61a0.24,0.24 0 0 1 0.26,-0.34l1,0a0.34,0.34 0 0 1 0.34,0.3l1.88,6.29l0.46,2l0,0l0.55,-2l2,-6.29a0.36,0.36 0 0 1 0.36,-0.3l1,0l0.17,-0.04z"/>
  <path id="svg_5" fill="#383938" d="m162.5,336.429996a0.36,0.36 0 0 1 0.36,0.3l2.08,6.29l0.53,2l0,0l0.47,-2l1.84,-6.29a0.34,0.34 0 0 1 0.34,-0.3l1.07,0a0.23,0.23 0 0 1 0.24,0.34l-2.93,9.61a0.38,0.38 0 0 1 -0.37,0.3l-1.21,0a0.36,0.36 0 0 1 -0.37,-0.3l-1.87,-5.79l-0.61,-2.16l-0.07,0l-0.59,2.16l-1.91,5.79a0.35,0.35 0 0 1 -0.38,0.3l-1.21,0a0.38,0.38 0 0 1 -0.38,-0.3l-3,-9.61a0.24,0.24 0 0 1 0.26,-0.34l1,0a0.34,0.34 0 0 1 0.34,0.3l1.88,6.29l0.46,2l0,0l0.55,-2l2,-6.29a0.36,0.36 0 0 1 0.36,-0.3l1,0l0.12,0z"/>
  <path id="svg_6" fill="#383938" d="m170.71,344.849996a0.27,0.27 0 0 1 0.32,-0.32l1.27,0a0.27,0.27 0 0 1 0.32,0.32l0,1.5a0.26,0.26 0 0 1 -0.3,0.32l-1.32,0a0.26,0.26 0 0 1 -0.3,-0.32l0,-1.5l0.01,0z"/>
  <path id="svg_7" fill="#383938" d="m176.92,346.669996a0.36,0.36 0 0 1 -0.37,-0.28l-3.46,-9.63a0.23,0.23 0 0 1 0.24,-0.34l1,0a0.34,0.34 0 0 1 0.34,0.3l1.84,5.1l1,3.15l0,0l1,-3.15l1.82,-5.1a0.34,0.34 0 0 1 0.34,-0.3l1.07,0c0.22,0 0.28,0.14 0.22,0.34l-3.46,9.64a0.36,0.36 0 0 1 -0.37,0.28l-1.21,0l0,-0.01z"/>
  <path id="svg_8" fill="#383938" d="m185.68,334.789996a0.26,0.26 0 0 1 -0.3,0.32l-1,0a0.26,0.26 0 0 1 -0.3,-0.32l0,-1.6a0.26,0.26 0 0 1 0.3,-0.32l1,0a0.26,0.26 0 0 1 0.3,0.32l0,1.6zm0,11.57a0.26,0.26 0 0 1 -0.3,0.32l-1,0a0.26,0.26 0 0 1 -0.3,-0.32l0,-9.61a0.26,0.26 0 0 1 0.3,-0.32l1,0a0.26,0.26 0 0 1 0.3,0.32l0,9.61z"/>
  <path id="svg_9" fill="#383938" d="m190.4,338.149996a3.81,3.81 0 0 1 3.66,-2c2.77,0 4.57,1.74 4.57,5.34s-1.8,5.34 -4.57,5.34c-1.66,0 -3,-0.55 -3.64,-1.92l0,3.58a0.28,0.28 0 0 1 -0.32,0.32l-1,0a0.27,0.27 0 0 1 -0.32,-0.32l0,-11.74a0.27,0.27 0 0 1 0.32,-0.32l0.95,0a0.28,0.28 0 0 1 0.32,0.3l0,1.42l0.03,0zm3.33,7.32c2.1,0 3.22,-1.15 3.22,-3.94s-1.13,-3.93 -3.22,-3.93s-3.34,1.34 -3.34,3.93s1.24,3.94 3.34,3.94"/>
  <path id="svg_10" fill="#383938" d="m203.99,346.869996a9.62,9.62 0 0 1 -3.32,-0.56a0.25,0.25 0 0 1 -0.22,-0.3l0.26,-0.83a0.22,0.22 0 0 1 0.36,-0.18a7.85,7.85 0 0 0 2.77,0.49c1.64,0 2.47,-0.34 2.47,-1.48s-1,-1.48 -2.61,-2s-3.16,-1 -3.16,-3.08c0,-1.7 1.13,-2.71 3.58,-2.71a7.79,7.79 0 0 1 3.12,0.58a0.23,0.23 0 0 1 0.2,0.32l-0.26,0.77a0.22,0.22 0 0 1 -0.34,0.18a6.57,6.57 0 0 0 -2.53,-0.47c-1.56,0 -2.21,0.37 -2.21,1.34s1,1.42 2.57,2c1.76,0.61 3.2,1.4 3.2,3.16c0,2 -1.48,2.85 -3.88,2.85"/>
  <path id="svg_11" fill="#383938" d="m210.08,344.849996a0.27,0.27 0 0 1 0.32,-0.32l1.27,0a0.27,0.27 0 0 1 0.32,0.32l0,1.5a0.26,0.26 0 0 1 -0.3,0.32l-1.31,0a0.26,0.26 0 0 1 -0.3,-0.32l0,-1.5z"/>
  <path id="svg_12" fill="#383938" d="m219,336.189996a6,6 0 0 1 2.83,0.59a0.32,0.32 0 0 1 0.22,0.38l-0.34,0.79a0.28,0.28 0 0 1 -0.43,0.14a4.57,4.57 0 0 0 -2.08,-0.45c-2.1,0 -3.44,1.23 -3.44,3.88s1.36,3.94 3.34,3.94a4.89,4.89 0 0 0 2.35,-0.57c0.24,-0.1 0.34,0 0.38,0.16l0.32,0.81c0,0.18 0,0.24 -0.24,0.36a6.06,6.06 0 0 1 -2.77,0.67c-3,0 -5,-1.9 -5,-5.36s2,-5.32 4.88,-5.32"/>
  <path id="svg_13" fill="#383938" d="m223.75,341.529996c0,-3.46 1.9,-5.34 4.88,-5.34s4.88,1.88 4.88,5.34s-1.92,5.34 -4.88,5.34s-4.88,-1.88 -4.88,-5.34m8.13,0c0,-2.65 -1.23,-3.94 -3.24,-3.94s-3.24,1.29 -3.24,3.94s1.21,3.94 3.24,3.94s3.24,-1.29 3.24,-3.94"/>
  <path id="svg_14" fill="#383938" d="m244.38,346.359996a0.27,0.27 0 0 1 -0.32,0.32l-1,0a0.27,0.27 0 0 1 -0.32,-0.32l0,-6.33c0,-1.46 -0.57,-2.35 -2.2,-2.35a2.65,2.65 0 0 0 -2.87,2.81l0,5.87a0.27,0.27 0 0 1 -0.32,0.32l-1,0a0.27,0.27 0 0 1 -0.32,-0.32l0,-9.61a0.28,0.28 0 0 1 0.32,-0.32l1,0a0.27,0.27 0 0 1 0.32,0.3l0,1.29a3.25,3.25 0 0 1 3.24,-1.82c1.7,0 2.69,0.69 3.1,1.92a3.54,3.54 0 0 1 3.56,-1.92c2.27,0 3.4,1.46 3.4,3.64l0,6.53a0.26,0.26 0 0 1 -0.3,0.32l-1,0a0.27,0.27 0 0 1 -0.32,-0.32l0,-6.31c0,-1.48 -0.57,-2.37 -2.21,-2.37a2.63,2.63 0 0 0 -2.85,2.63l0,6.05l0.09,-0.01z"/>
  <path id="svg_15" fill="#383938" d="m253.79,344.849996a0.27,0.27 0 0 1 0.32,-0.32l1.27,0a0.27,0.27 0 0 1 0.32,0.32l0,1.5a0.26,0.26 0 0 1 -0.3,0.32l-1.31,0a0.26,0.26 0 0 1 -0.3,-0.32l0,-1.5z"/>
  <path id="svg_16" fill="#383938" d="m266.82,346.359996a0.27,0.27 0 0 1 -0.32,0.32l-1,0a0.27,0.27 0 0 1 -0.32,-0.32l0,-6.33c0,-1.46 -0.57,-2.35 -2.2,-2.35a2.65,2.65 0 0 0 -2.87,2.81l0,5.87a0.27,0.27 0 0 1 -0.32,0.32l-1,0a0.27,0.27 0 0 1 -0.32,-0.32l0,-9.61a0.28,0.28 0 0 1 0.32,-0.32l1,0a0.27,0.27 0 0 1 0.32,0.3l0,1.29a3.25,3.25 0 0 1 3.24,-1.82c1.7,0 2.69,0.69 3.1,1.92a3.55,3.55 0 0 1 3.56,-1.92c2.27,0 3.4,1.46 3.4,3.64l0,6.53a0.26,0.26 0 0 1 -0.3,0.32l-1,0a0.27,0.27 0 0 1 -0.32,-0.32l0,-6.31c0,-1.48 -0.57,-2.37 -2.21,-2.37a2.63,2.63 0 0 0 -2.85,2.63l0,6.05l0.09,-0.01z"/>
  <path id="svg_17" fill="#383938" d="m279.92,340.249996l2.57,-3.58a0.4,0.4 0 0 1 0.39,-0.24l1.17,0a0.21,0.21 0 0 1 0.16,0.36l-3.46,4.69l3.58,4.87a0.2,0.2 0 0 1 -0.16,0.34l-1.23,0a0.4,0.4 0 0 1 -0.38,-0.22l-2.67,-3.76l-2.67,3.76a0.4,0.4 0 0 1 -0.4,0.22l-1.23,0c-0.2,0 -0.26,-0.18 -0.14,-0.34l3.56,-4.87l-3.51,-4.69c-0.12,-0.18 -0.06,-0.36 0.14,-0.36l1.23,0a0.43,0.43 0 0 1 0.4,0.24l2.65,3.58z"/>
  <rect id="svg_41" fill="#eb0029" height="1.17" width="252.76" y="327.21" x="76.95"/>
  <path id="svg_42" fill="#eb0029" d="m331.83,327.799996a2.85,2.85 0 1 1 -2.85,-2.85a2.85,2.85 0 0 1 2.85,2.85"/>
  <path id="svg_43" fill="#eb0029" d="m79.97,327.799996a2.85,2.85 0 1 1 -2.85,-2.85a2.85,2.85 0 0 1 2.85,2.85"/>
  <path id="svg_44" fill="#ffdb00" d="m237.77,53.269996a21,21 0 1 1 -25.59,-15.06a21,21 0 0 1 25.59,15.06"/>
  <path id="svg_45" fill="#383938" d="m244.3,183.969996l-19.8,-44.67a10.36,10.36 0 0 0 -5.9,-5.52a10.74,10.74 0 0 0 -4.61,-1l-16.33,0l6.13,-12.3l27.17,4.45a7.72,7.72 0 0 0 8.84,-6.34l0.07,-0.43a7.72,7.72 0 0 0 -6.35,-8.84l-22.33,-3.73l1.87,-3.74a13.69,13.69 0 0 0 -6.12,-18.3l-1.39,-0.69a13.69,13.69 0 0 0 -18.3,6.12l-23.67,47.48a13.69,13.69 0 0 0 2.24,15.37a10.87,10.87 0 0 0 9.07,4.91l0.38,0a13.63,13.63 0 0 0 3.8,0l30.43,0l15.8,35.65a10.39,10.39 0 0 0 19,-8.42"/>
  <path id="svg_46" fill="#ffdb00" d="m286,118.679996c0.88,6.87 4.86,12 8.9,11.5s6.6,-6.5 5.72,-13.37s-4.86,-12 -8.9,-11.49s-6.59,6.5 -5.71,13.37"/>
  <path id="svg_47" fill="#383938" d="m339.5,235.589996c0,-0.77 0,-1.53 -0.07,-2.29c0,-0.1 0,-0.21 0,-0.31q0,-0.75 -0.12,-1.49c-1.56,-16.87 -12.7,-31.14 -28.27,-38a19,19 0 0 1 -4.15,-3.91l1.55,-0.88a3.79,3.79 0 0 0 1.43,-5.16l-12.7,-22.44a3.79,3.79 0 0 0 -5.16,-1.43l-1.84,1c-4.55,-9.85 -7.79,-18.65 -7.57,-21l0.54,-0.2l3,0a11.69,11.69 0 0 0 11.65,-11.65l-5,-25.8a11.69,11.69 0 0 0 -11.65,-11.65l-20.52,0a11.64,11.64 0 0 0 -9.34,4.73a4.91,4.91 0 0 0 -2.84,4.18l0,5c0,1.27 0,2.23 -1.3,2.23l-15.47,0a4.18,4.18 0 0 0 -2.9,-1l-9.12,0a3.73,3.73 0 0 0 -4.05,4l0,1.46a3.72,3.72 0 0 0 4.05,4l9.12,0a4.37,4.37 0 0 0 2.57,-0.75l15.28,0c2,0 1.82,1.4 1.82,2.67l0,10.12c0,9 6.6,10 8.54,13.58c9.83,18 0.88,48.14 2.22,59a48,48 0 0 0 -7.43,7.15l-18.39,0c-18.9,0 -28.81,-16.78 -29.63,-33.91c4.07,-0.63 7.14,-3.52 7.14,-7l0,-0.54c0,-3.93 -3.95,-7.12 -8.82,-7.12l-53.8,0a14.89,14.89 0 0 0 13,-14.71l0,-58.04a14.89,14.89 0 0 0 -14.86,-14.84l-67.57,0a14.89,14.89 0 0 0 -14.84,14.84l0,58.16a14.89,14.89 0 0 0 14.84,14.84l39.84,0c-4.07,0.63 -7.15,3.52 -7.15,7l0,0.54c0,3.93 3.95,7.12 8.82,7.12l16.49,0l-3,10.74l-53.83,0c-2,0 -3.69,2.11 -3.69,4.7s1.65,4.7 3.69,4.7l51.2,0l-1.51,5.4l-42.4,0c-1.95,0 -3.52,2.1 -3.52,4.7s1.58,4.7 3.52,4.7l33.45,0a6.74,6.74 0 0 0 -1.5,2.71q-0.73,1.08 -1.4,2.19l-19.35,0c-1.42,0 -2.57,2.1 -2.57,4.7s1.15,4.7 2.57,4.7l15.12,0a43.9,43.9 0 0 0 -2,13.24l17.46,0a27.84,27.84 0 0 0 54.77,0l82.05,0a27.84,27.84 0 0 0 54.77,0l18.83,0l0,0.02zm-183,8.98a14,14 0 0 1 -13.08,-9l26.08,0a14,14 0 0 1 -13.09,9"/>
  <path id="svg_48" fill="#ffc535" d="m301.27,106.589996a0.66,0.66 0 0 1 -0.33,-1.23l32.56,-18.44a0.66,0.66 0 1 1 0.65,1.15l-32.52,18.46a0.65,0.65 0 0 1 -0.32,0.09"/>
  <path id="svg_49" fill="#ffc535" d="m335.11,116.279996l-29,0a0.66,0.66 0 1 1 0,-1.32l29,0a0.66,0.66 0 1 1 0,1.32"/>
  <path id="svg_50" fill="#ffc535" d="m328.19,134.409996a0.65,0.65 0 0 1 -0.26,-0.05l-19.12,-8.24a0.66,0.66 0 1 1 0.52,-1.21l19.12,8.24a0.66,0.66 0 0 1 -0.26,1.26"/>
  <path id="svg_51" fill="#eb0029" d="m153.55,103.379996c4.26,16 -10.75,33.93 -33.53,40s-44.7,-2 -49,-18.06s10.75,-33.93 33.53,-40s44.7,2 49,18.06"/>
  <polygon id="svg_52" fill="#fff" points="93.52 115.19 97.06 107.55 102.99 107.55 95.2 122.45 91.83 122.45 84.02 107.55 89.95 107.55 93.52 115.19"/>
  <path id="svg_53" fill="#fff" d="m106.86,108.479996a4.29,4.29 0 0 1 -2.64,-0.94l0,14.9l5.28,0l0,-14.85a4.29,4.29 0 0 1 -2.64,0.94"/>
  <path id="svg_54" fill="#ffdb00" d="m110.3,103.329996a3.45,3.45 0 1 1 -3.45,-3.45a3.47,3.47 0 0 1 3.45,3.45"/>
  <path id="svg_55" fill="#fff" d="m137.15,112.979996c-0.72,-0.15 -2.38,-0.29 -2.38,-1.31c0,-0.76 1,-1 1.66,-1a6.57,6.57 0 0 1 2.85,0.73l1.77,-3.37a11.84,11.84 0 0 0 -4.91,-1c-3.25,0 -6.57,1.63 -6.57,5.29c0,2.67 1.66,3.49 3.31,3.92s3.31,0.49 3.31,1.66c0,0.81 -1,1.13 -1.66,1.13a9.35,9.35 0 0 1 -4.54,-1.77a9.69,9.69 0 0 1 -1.75,3.82a11.64,11.64 0 0 0 6.21,1.84c3.46,0 7,-1.63 7,-5.55c0,-2.76 -1.86,-3.92 -4.33,-4.42"/>
  <path id="svg_56" fill="#fff" d="m121.04,107.049996a5.3,5.3 0 0 0 -4.5,2.18l-0.04,0l0,-1.64l-5.29,0l0,22.3l5.29,0l0,-8.86a6.1,6.1 0 0 0 4.62,1.92c4.42,0 7.47,-3.6 7.47,-7.9s-3.08,-8 -7.52,-8m-1.3,11.54a3.45,3.45 0 1 1 3.45,-3.45a3.46,3.46 0 0 1 -3.45,3.45"/>
  <path id="svg_57" fill="#fff" d="m154.97,86.359996a2.4,2.4 0 1 1 -2.39,-2.49a2.26,2.26 0 0 1 2.39,2.49m-0.44,0a2,2 0 1 0 -2,2.08a1.84,1.84 0 0 0 2,-2.08m-2.94,-1.32a0.1,0.1 0 0 1 0.11,-0.11l1,0a1,1 0 0 1 1.19,0.93a0.77,0.77 0 0 1 -0.72,0.85l0.69,0.89c0,0.06 0,0.11 -0.07,0.11l-0.38,0a0.14,0.14 0 0 1 -0.13,-0.07l-0.67,-0.88l-0.51,0l0,0.83a0.08,0.08 0 0 1 -0.1,0.1l-0.3,0a0.1,0.1 0 0 1 -0.11,-0.1l0,-2.58l0,0.03zm1,1.3c0.59,0 0.79,-0.11 0.79,-0.48s-0.21,-0.48 -0.74,-0.48l-0.52,0l0,1l0.47,0l0,-0.04z"/>
  <path id="svg_58" fill="#ffc535" d="m280.03,232.139996a13.64,13.64 0 1 0 13.64,-13.64a13.64,13.64 0 0 0 -13.64,13.64"/>
  <text font-weight="bold" stroke="null" xml:space="preserve" text-anchor="start" font-family="Arvo, sans-serif" font-size="20" id="svg_59" y="283.334999" x="34.494995" stroke-opacity="null" stroke-width="0" fill="#444444">El Pedido está en un status inválido</text>
  <text style="cursor: move;" font-weight="bold" stroke="null" xml:space="preserve" text-anchor="start" font-family="Arvo, sans-serif" font-size="20" id="svg_62" y="308.334999" x="23.494995" stroke-opacity="null" stroke-width="0" fill="#444444">o el repartidor está fuera de cobertura.</text>
 </g>
</svg>