<svg id="Layer_1" data-name="Layer 1" xmlns="http://www.w3.org/2000/svg" viewBox="0 0 302.62 223.78"><title>logo</title><ellipse cx="-289.99" cy="679.04" rx="153.87" ry="108.28" transform="translate(257.12 -618.86) rotate(-14.89)" style="fill:#e80032"/><path d="M-357.71,682.09l12.78-27.55h21.37l-28.07,53.74h-12.15L-392,654.55h21.37Z" transform="translate(441.3 -567.15)" style="fill:#fff"/><path d="M-309.62,657.93a15.45,15.45,0,0,1-9.53-3.38v53.73h19.06V654.55A15.46,15.46,0,0,1-309.62,657.93Z" transform="translate(441.3 -567.15)" style="fill:#fff"/><path d="M-297.23,639.36a12.5,12.5,0,0,1-12.45,12.44,12.5,12.5,0,0,1-12.44-12.44,12.5,12.5,0,0,1,12.44-12.44A12.5,12.5,0,0,1-297.23,639.36Z" transform="translate(441.3 -567.15)" style="fill:#ffd900"/><path d="M-200.43,674.13c-2.62-.52-8.59-1-8.59-4.71,0-2.72,3.77-3.67,6-3.67a23.67,23.67,0,0,1,10.26,2.62l6.39-12.15a42.67,42.67,0,0,0-17.7-3.46c-11.73,0-23.68,5.87-23.68,19.07,0,9.64,6,12.57,11.94,14.14s11.94,1.78,11.94,6c0,2.93-3.56,4.09-6,4.08-5.37,0-12.48-3.6-16.37-6.37a34.93,34.93,0,0,1-6.32,13.78,42,42,0,0,0,22.38,6.62c12.46,0,25.35-5.87,25.35-20C-184.83,680.1-191.53,675.92-200.43,674.13Z" transform="translate(441.3 -567.15)" style="fill:#fff"/><path d="M-258.52,652.76c-6.29,0-12.78,2.52-16.24,7.86H-275v-6.07H-294V735.1H-275V703.15c4.08,4.71,10.47,6.91,16.65,6.91,15.92,0,26.92-13,26.92-28.49S-242.5,652.76-258.52,652.76Zm-4.57,41.72A12.5,12.5,0,0,1-275.54,682,12.5,12.5,0,0,1-263.1,669.6,12.5,12.5,0,0,1-250.65,682,12.5,12.5,0,0,1-263.1,694.48Z" transform="translate(441.3 -567.15)" style="fill:#fff"/><path d="M-145.55,582.51c0,4.65-2.4,8.84-8.44,8.84s-8.5-4.2-8.5-8.84,2.5-8.79,8.5-8.79S-145.55,577.87-145.55,582.51Zm-1.55,0c0-3.95-1.85-7.34-6.89-7.34s-6.9,3.4-6.9,7.34,1.8,7.35,6.9,7.35S-147.1,586.51-147.1,582.51Zm-10.39-4.65a0.35,0.35,0,0,1,.4-0.4h3.55c2.65,0,4.2,1.2,4.2,3.3a2.71,2.71,0,0,1-2.55,3l2.45,3.15c0.15,0.2,0,.4-0.25.4H-151a0.48,0.48,0,0,1-.45-0.25l-2.35-3.1h-1.8v3a0.3,0.3,0,0,1-.35.35h-1.1a0.33,0.33,0,0,1-.4-0.35v-9.09Zm3.5,4.6c2.1,0,2.8-.4,2.8-1.7s-0.75-1.7-2.6-1.7h-1.85v3.4H-154Z" transform="translate(441.3 -567.15)" style="fill:#e80032"/></svg>